<svg width="44" height="44" viewBox="0 0 44 44" fill="none" xmlns="http://www.w3.org/2000/svg">
<g clip-path="url(#clip0_30_649)">
<path d="M42.8746 7.69287H1.41022C0.787932 7.69287 0.284836 8.19674 0.284836 8.81826V34.898C0.284836 35.5195 0.787932 36.0234 1.41022 36.0234H42.8746C43.4969 36.0234 44 35.5195 44 34.898V8.81826C44 8.19674 43.4969 7.69287 42.8746 7.69287ZM40.6749 20.3206L40.072 20.8647L39.5279 20.2602L40.1316 19.7161L40.6749 20.3206ZM37.5697 19.7935L36.7531 18.8864L37.6602 18.0698L38.4768 18.9769L37.5697 19.7935ZM38.4954 19.8933L39.3127 20.7997L38.4056 21.6162L37.589 20.7099L38.4954 19.8933ZM36.8321 19.593L35.6231 20.6813L34.5356 19.4723L35.7446 18.384L36.8321 19.593ZM36.6084 20.4467L37.6966 21.6557L36.4876 22.7432L35.3994 21.5342L36.6084 20.4467ZM37.4683 22.5365L38.5565 23.7455L37.3475 24.8353L36.2593 23.6263L37.4683 22.5365ZM38.3638 22.6255L39.2709 21.8082L40.0882 22.7153L39.1811 23.5319L38.3638 22.6255ZM39.904 18.5234L39.2995 19.0675L38.7554 18.463L39.3599 17.9189L39.904 18.5234ZM6.62385 23.8748H5.99691L5.20821 20.9808H5.16719L4.40171 23.8748H3.77477L2.83515 19.7633H3.4853L4.13468 22.8314H4.1757L4.92957 19.7633H5.44583L6.25233 22.8314H6.29335L6.88546 19.7633H7.56425L6.62385 23.8748ZM10.2214 22.5365H8.33128C8.33128 23.2316 8.61533 23.5404 9.21285 23.5404C9.52555 23.5404 9.8158 23.4297 10.1347 23.2385V23.6789C9.87385 23.8291 9.52555 23.946 9.10837 23.946C8.13391 23.946 7.73375 23.343 7.73375 22.4258C7.73375 21.5443 8.18035 20.9073 9.05032 20.9073C9.77555 20.9073 10.2221 21.3771 10.2221 22.3237L10.2214 22.5365ZM11.88 23.9452C11.5728 23.9452 11.0968 23.8461 10.7485 23.6611V19.6132L11.3514 19.4684V21.1217C11.5263 21.0288 11.8212 20.9073 12.1355 20.9073C12.8545 20.9073 13.243 21.4065 13.243 22.3345C13.243 23.4189 12.7214 23.9452 11.88 23.9452ZM17.8731 23.8748H17.8715H17.2454V20.8933H17.1935L16.0101 23.8748H15.6393L14.4559 20.963H14.404V23.8748H13.8824V19.7633H14.5836L15.8831 23.0056H15.9125L17.154 19.7633H17.8731V23.8748ZM19.8328 23.9452C19.0387 23.9452 18.5101 23.4166 18.5101 22.4251C18.5101 21.4096 19.0673 20.9065 19.8328 20.9065C20.5983 20.9065 21.1556 21.4111 21.1556 22.4251C21.1556 23.4189 20.6277 23.9452 19.8328 23.9452ZM24.1424 23.8748H23.5395V21.908C23.5395 21.4506 23.3142 21.3693 23.017 21.3693C22.7848 21.3693 22.4892 21.4738 22.3096 21.5783V23.8748H21.7067V21.3345C21.9675 21.1782 22.5186 20.9057 23.1858 20.9057C23.8816 20.9057 24.1424 21.1782 24.1424 21.7757V23.8748ZM27.1703 22.5365H25.2794C25.2794 23.2316 25.5635 23.5404 26.1625 23.5404C26.4752 23.5404 26.7655 23.4297 27.0836 23.2385V23.6789C26.822 23.8291 26.4752 23.946 26.0565 23.946C25.0821 23.946 24.6834 23.343 24.6834 22.4258C24.6834 21.5443 25.13 20.9073 25.9992 20.9073C26.7252 20.9073 27.1718 21.3771 27.1718 22.3237L27.1703 22.5365ZM28.9969 23.9049C28.7067 24.7045 28.3529 25.1224 27.6873 25.1224V24.6472C28.0821 24.6472 28.3243 24.3345 28.4644 23.9049L27.3514 21.004H27.9892L28.7314 23.1387H28.7663L29.4273 21.004H30.048L28.9969 23.9049ZM38.8321 26.2788C38.0929 26.7006 37.2361 26.9413 36.3266 26.9413C33.5271 26.9413 31.243 24.658 31.243 21.8585C31.243 19.059 33.5271 16.7749 36.3266 16.7749C37.1238 16.7749 37.8808 16.9607 38.5542 17.2904C38.6602 17.3407 38.7655 17.3964 38.87 17.4568L38.4025 17.8755L37.6997 17.1488L36.5132 18.2076L35.8096 17.4382L33.5983 19.4305L35.0155 20.9932L34.4582 21.4823L35.8545 23.0466L35.3003 23.5358L37.2957 25.7563L38.4783 24.6666L39.5016 25.8353C39.2988 25.9916 39.0774 26.1402 38.8321 26.2788ZM39.9783 25.3624L39.161 24.4568L40.0681 23.6395L40.8847 24.5458L39.9783 25.3624ZM40.8437 22.6596L40.2995 22.0551L40.904 21.511L41.4482 22.1155L40.8437 22.6596Z" fill="white"/>
<path d="M19.8328 21.3125C19.4505 21.3125 19.1192 21.6422 19.1192 22.4255C19.1192 23.2204 19.4211 23.5393 19.8328 23.5393C20.2446 23.5393 20.5464 23.2204 20.5464 22.4255C20.5464 21.6414 20.2268 21.3125 19.8328 21.3125Z" fill="white"/>
<path d="M11.9783 21.3589C11.7477 21.3589 11.579 21.4224 11.3468 21.5501V23.4471C11.5325 23.5284 11.7345 23.54 11.88 23.54C12.3096 23.54 12.6347 23.273 12.6347 22.3333C12.6347 21.5965 12.3669 21.3589 11.9783 21.3589Z" fill="white"/>
<path d="M25.9814 21.2949C25.627 21.2949 25.3545 21.5674 25.2895 22.1471H26.6192C26.5906 21.5387 26.2941 21.2949 25.9814 21.2949Z" fill="white"/>
<path d="M9.03252 21.2949C8.6788 21.2949 8.40558 21.5674 8.34212 22.1471H9.67029C9.64165 21.5387 9.34599 21.2949 9.03252 21.2949Z" fill="white"/>
</g>
<defs>
<clipPath id="clip0_30_649">
<rect width="43.7152" height="43.7152" fill="white" transform="translate(0.284836)"/>
</clipPath>
</defs>
</svg>
